<?xml version="1.0" encoding="UTF-8"?>
<svg version="1.1" xmlns="http://www.w3.org/2000/svg" width="512" height="512">
<path d="M0 0 C168.96 0 337.92 0 512 0 C512 168.96 512 337.92 512 512 C343.04 512 174.08 512 0 512 C0 343.04 0 174.08 0 0 Z " fill="#FAF9F8" transform="translate(0,0)"/>
<path d="M0 0 C168.96 0 337.92 0 512 0 C512 168.96 512 337.92 512 512 C343.04 512 174.08 512 0 512 C0 343.04 0 174.08 0 0 Z M58 63 C57.90210875 65.05373423 57.87628785 67.11090446 57.87695217 69.16697025 C57.87579843 69.8217644 57.87464468 70.47655854 57.87345598 71.15119493 C57.87078421 73.37157844 57.87531504 75.5918912 57.87974548 77.81227112 C57.8793085 79.40555844 57.8784324 80.9988457 57.87715149 82.59213257 C57.87489621 87.00046209 57.87893861 91.40876758 57.88392727 95.81709404 C57.88827435 100.63258654 57.88683396 105.44807782 57.88610935 110.26357174 C57.8855763 119.62374234 57.8902071 128.98390339 57.89661068 138.34407153 C57.90379244 149.16423712 57.90460443 159.98439693 57.90539551 170.80456543 C57.91065229 199.39054514 57.92461331 227.97652271 57.9375 256.5625 C57.958125 320.396875 57.97875 384.23125 58 450 C188.68 450 319.36 450 454 450 C454.020625 386.165625 454.04125 322.33125 454.0625 256.5625 C454.07615601 226.26997437 454.07615601 226.26997437 454.09008789 195.36547852 C454.09343123 177.34563455 454.09343123 177.34563455 454.09544373 159.32579041 C454.09637965 151.26666475 454.10006207 143.20754595 454.10557556 135.14842224 C454.11191652 125.86615065 454.11484169 116.58388568 454.11344495 107.3016119 C454.11283946 102.54781811 454.11383553 97.79403914 454.11921513 93.04024804 C454.12404084 88.75009432 454.12435014 84.45996608 454.12090111 80.16981125 C454.12047353 78.61082467 454.12177185 77.05183657 454.12488258 75.49285305 C454.12884614 73.38419358 454.12676328 71.27562801 454.12304783 69.16697025 C454.12342755 67.99173583 454.12380727 66.81650141 454.1241985 65.60565382 C454.29620588 63.07199292 454.29620588 63.07199292 453 62 C450.91075021 61.90115235 448.81808829 61.87444279 446.72650146 61.87415886 C445.72739125 61.8719787 445.72739125 61.8719787 444.70809698 61.86975449 C442.44827939 61.86606888 440.18852817 61.86959267 437.92871094 61.87301636 C436.30338887 61.87186555 434.67806707 61.8702783 433.05274582 61.86828911 C428.56470871 61.86409026 424.07669269 61.86618897 419.58865547 61.86927533 C414.75697812 61.87152697 409.92530454 61.86805101 405.09362793 61.86529541 C395.61977324 61.86083617 386.14592646 61.86181486 376.67207146 61.86470805 C368.97616384 61.86696148 361.28025844 61.86727487 353.58435059 61.86618423 C352.49128247 61.866031 351.39821435 61.86587777 350.27202296 61.86571989 C348.05185223 61.86540018 345.83168149 61.86507597 343.61151075 61.8647473 C322.76648113 61.86189206 301.92145589 61.86518022 281.07642698 61.87054767 C263.16943871 61.87501575 245.26245691 61.87423983 227.35546875 61.86962891 C206.58777891 61.86428392 185.82009293 61.86216675 165.0524025 61.86524117 C162.84015147 61.86555974 160.62790044 61.86587411 158.41564941 61.86618423 C156.7827138 61.86641565 156.7827138 61.86641565 155.11678958 61.86665174 C147.42531158 61.86751712 139.73383602 61.86605356 132.0423584 61.86370468 C122.67593263 61.86090732 113.30951524 61.86164358 103.94309044 61.86698543 C99.15927544 61.86962331 94.37547446 61.87062604 89.59165955 61.86733627 C85.21970478 61.86437509 80.84777711 61.86596312 76.47582483 61.87131383 C74.88701864 61.87243878 73.29821019 61.87184512 71.70940542 61.86943804 C69.5640697 61.86643499 67.41882912 61.86947753 65.27349854 61.87415886 C64.07754185 61.87432121 62.88158516 61.87448356 61.64938736 61.87465084 C59.07714367 61.69855664 59.07714367 61.69855664 58 63 Z " fill="#FEFEFE" transform="translate(0,0)"/>
<path d="M0 0 C0.66607348 -0.00145344 1.33214696 -0.00290688 2.01840448 -0.00440437 C4.27822208 -0.00808998 6.53797329 -0.00456619 8.79779053 -0.0011425 C10.42311259 -0.00229331 12.04843439 -0.00388056 13.67375565 -0.00586975 C18.16179276 -0.0100686 22.64980878 -0.00796989 27.13784599 -0.00488353 C31.96952334 -0.00263189 36.80119692 -0.00610785 41.63287354 -0.00886345 C51.10672822 -0.01332269 60.58057501 -0.012344 70.05443001 -0.00945081 C77.75033763 -0.00719738 85.44624302 -0.00688399 93.14215088 -0.00797462 C94.78175305 -0.00820447 94.78175305 -0.00820447 96.4544785 -0.00843897 C98.67464924 -0.00875868 100.89481998 -0.00908289 103.11499071 -0.00941156 C123.96002034 -0.0122668 144.80504558 -0.00897864 165.65007448 -0.00361119 C183.55706276 0.00085689 201.46404455 0.00008097 219.37103271 -0.00452995 C240.13872255 -0.00987494 260.90640854 -0.01199211 281.67409897 -0.00891769 C283.88635 -0.00859912 286.09860102 -0.00828475 288.31085205 -0.00797462 C289.3994758 -0.00782035 290.48809954 -0.00766607 291.60971189 -0.00750712 C299.30118988 -0.00664174 306.99266545 -0.0081053 314.68414307 -0.01045418 C324.05056884 -0.01325154 333.41698622 -0.01251528 342.78341103 -0.00717343 C347.56722602 -0.00453555 352.35102701 -0.00353282 357.13484192 -0.00682259 C361.50679669 -0.00978377 365.87872435 -0.00819574 370.25067663 -0.00284503 C371.83948283 -0.00172008 373.42829127 -0.00231374 375.01709604 -0.00472082 C377.16243176 -0.00772387 379.30767234 -0.00468133 381.45300293 0 C382.64895962 0.00016235 383.84491631 0.0003247 385.07711411 0.00049198 C387.72650146 0.12584114 387.72650146 0.12584114 388.72650146 1.12584114 C388.82439271 3.17957537 388.85021361 5.2367456 388.84954929 7.29281139 C388.85070304 7.94760554 388.85185678 8.60239968 388.85304549 9.27703607 C388.85571726 11.49741958 388.85118643 13.71773234 388.84675598 15.93811226 C388.84719296 17.53139958 388.84806907 19.12468684 388.84934998 20.71797371 C388.85160525 25.12630323 388.84756285 29.53460872 388.84257419 33.94293518 C388.83822711 38.75842768 388.83966751 43.57391896 388.84039211 48.38941288 C388.84092516 57.74958348 388.83629436 67.10974453 388.82989078 76.46991267 C388.82270903 87.29007826 388.82189704 98.11023807 388.82110596 108.93040657 C388.81584917 137.51638628 388.80188815 166.10236385 388.78900146 194.68834114 C388.76837646 258.52271614 388.74775146 322.35709114 388.72650146 388.12584114 C258.04650146 388.12584114 127.36650146 388.12584114 -7.27349854 388.12584114 C-7.29412354 324.29146614 -7.31474854 260.45709114 -7.33599854 194.68834114 C-7.34510254 174.49332405 -7.35420654 154.29830696 -7.36358643 133.49131966 C-7.36810303 108.93040657 -7.36810303 108.93040657 -7.36894226 97.45163155 C-7.36987819 89.39250589 -7.3735606 81.33338709 -7.3790741 73.27426338 C-7.38541506 63.99199179 -7.38834022 54.70972682 -7.38694349 45.42745304 C-7.386338 40.67365925 -7.38733407 35.91988028 -7.39271367 31.16608918 C-7.39753938 26.87593546 -7.39784867 22.58580722 -7.39439964 18.29565239 C-7.39397207 16.73666582 -7.39527039 15.17767772 -7.39838111 13.61869419 C-7.40234468 11.51003472 -7.40026181 9.40146915 -7.39654636 7.29281139 C-7.39692608 6.11757697 -7.3973058 4.94234255 -7.39769703 3.73149496 C-7.16169204 -1.21983147 -4.3367736 0.00058872 0 0 Z M-3.27349854 5.12584114 C-3.27349854 129.86584114 -3.27349854 254.60584114 -3.27349854 383.12584114 C124.76650146 383.12584114 252.80650146 383.12584114 384.72650146 383.12584114 C384.72650146 258.38584114 384.72650146 133.64584114 384.72650146 5.12584114 C256.68650146 5.12584114 128.64650146 5.12584114 -3.27349854 5.12584114 Z " fill="#0C0C0C" transform="translate(65.27349853515625,61.87415885925293)"/>
<path d="M0 0 C4.94617822 4.94617822 7.84806994 11.28145108 8.0625 18.3125 C7.93741725 26.12448625 5.4210986 32.32183112 0.1875 38.125 C-5.09259242 42.94552882 -10.95437978 45.5217586 -18.1171875 45.90234375 C-26.42132786 45.45378215 -32.3953516 43.04240308 -38.0625 36.9375 C-44.18133417 29.3099122 -45.2539816 22.35787046 -44.25 12.75 C-42.49374513 5.08102041 -37.6021367 0.13184551 -31.25 -4.25 C-20.31634129 -10.21204835 -9.55380323 -6.61417147 0 0 Z " fill="#020303" transform="translate(408.25,367.25)"/>
<path d="M0 0 C6.68625134 4.76597846 10.6799418 10.53522586 12.2578125 18.609375 C13.22058353 25.66065575 11.61019116 32.17468128 7.59375 38.0390625 C2.54617105 44.17257477 -2.45484711 47.87286864 -10.40625 48.98046875 C-18.40969928 49.35246005 -25.27545371 47.38276203 -31.5546875 42.359375 C-38.44612875 33.69584886 -40.85252012 26.81480078 -39.7421875 15.609375 C-37.38831742 7.86165914 -32.90961998 2.55100864 -25.9375 -1.41796875 C-17.43095458 -5.24767903 -8.00955265 -4.58424557 0 0 Z " fill="#020202" transform="translate(225.7421875,189.390625)"/>
<path d="M0 0 C6.17812174 4.41447107 10.6819649 10.10316068 12.2578125 17.61328125 C13.28138334 25.81626448 11.15110233 32.18130671 6.4453125 38.86328125 C2.37199334 43.99264612 -2.33090934 47.13375552 -8.7421875 48.61328125 C-18.01038682 49.50265391 -25.42154078 47.46979863 -32.7421875 41.61328125 C-38.67074393 34.88001772 -40.16116806 28.46693529 -39.99609375 19.5859375 C-39.45990501 13.3084047 -37.23815993 8.10925368 -32.7421875 3.61328125 C-22.63704589 -4.03082956 -11.63341422 -6.63964959 0 0 Z " fill="#020303" transform="translate(403.7421875,276.38671875)"/>
<path d="M0 0 C6.16811836 4.40732333 10.71467384 10.10425833 12.2578125 17.61328125 C13.31090526 25.73525914 11.44426011 31.84303719 6.9375 38.58984375 C2.72583038 43.99827195 -2.34208208 46.47991278 -8.7421875 48.61328125 C-16.91600693 49.52814911 -24.10747096 48.03393247 -30.78515625 43.10546875 C-36.05496876 38.27387092 -39.25680355 32.79420213 -40.0859375 25.65234375 C-40.32706709 17.67497305 -39.05486757 11.98318649 -34.5546875 5.42578125 C-25.02337264 -4.10553361 -12.10119852 -6.9066326 0 0 Z " fill="#020302" transform="translate(225.7421875,276.38671875)"/>
<path d="M0 0 C6.58341679 5.86902265 9.49283568 10.92835682 10.375 19.75 C10.198347 26.2230708 7.57764013 32.40816265 4.25 37.875 C-1.65836881 43.4551261 -8.23757106 46.92635874 -16.4453125 47.03125 C-24.52826027 46.53688011 -30.28708561 44.15217327 -35.8125 38.1875 C-41.15770333 31.52430133 -42.64013228 25.77313408 -42.40625 17.28515625 C-41.42421877 9.34392296 -37.43947631 3.34391162 -31.234375 -1.58984375 C-20.80666979 -8.17096539 -9.93107413 -6.72698761 0 0 Z " fill="#020303" transform="translate(317,366)"/>
<path d="M0 0 C5.66462363 3.8310998 10.89948756 8.59570701 12.29296875 15.55078125 C13.27423169 24.59163081 12.7505673 32.06725596 7.29296875 39.55078125 C2.5047145 45.0247321 -3.15050039 48.07114642 -10.37890625 48.83203125 C-18.98465674 49.11730475 -25.71126569 47.32860746 -32.1015625 41.40625 C-37.46205317 35.21103573 -40.11404368 27.71646808 -39.70703125 19.55078125 C-38.60070278 11.96782155 -35.40924501 6.62071669 -29.70703125 1.55078125 C-20.57123398 -5.0292815 -9.76986245 -5.51399232 0 0 Z " fill="#020303" transform="translate(135.70703125,189.44921875)"/>
<path d="M0 0 C5.70879843 4.22308618 9.37175365 8.70811448 11.19140625 15.62109375 C11.97691301 23.49442894 12.32572466 31.21357509 7.19140625 37.62109375 C1.8009498 43.67026178 -3.67464477 47.54656286 -11.80859375 48.62109375 C-20.42310217 48.90867977 -27.14911728 46.23322578 -33.55859375 40.55859375 C-38.37001009 35.42788434 -40.86951123 28.55558615 -41.30859375 21.55859375 C-40.10524824 12.08224784 -36.28521766 5.55966931 -28.80859375 -0.37890625 C-20.31642319 -5.81389541 -8.541171 -4.96710603 0 0 Z " fill="#020302" transform="translate(136.80859375,364.37890625)"/>
<path d="M0 0 C6.94569184 4.04463165 10.20461884 9.07537648 12.59375 16.6875 C14.49979117 24.26655128 12.52709208 30.41034727 9.25390625 37.3125 C5.12854177 43.93993466 -0.50649269 46.89929965 -7.74609375 49.3125 C-15.83078754 50.25414487 -22.05940139 49.02849768 -28.74609375 44.3125 C-34.18593203 39.41562109 -38.28990256 33.95793991 -39.0234375 26.48828125 C-39.27653331 18.41958686 -38.1152948 12.76476438 -33.55859375 6.125 C-24.18139127 -3.25220248 -12.24451963 -5.66038789 0 0 Z " fill="#020302" transform="translate(313.74609375,188.6875)"/>
<path d="M0 0 C6.8073893 5.42138031 10.11302763 10.62278095 11.30859375 19.21875 C11.71107898 26.14637459 9.63084943 32.50996177 5.45703125 38.046875 C-0.51777421 44.44552249 -6.09520135 47.20103483 -14.875 47.5625 C-23.27453579 47.29270763 -29.64552339 44.86183203 -35.4375 38.6875 C-40.94154472 31.42153729 -42.0221735 23.99750395 -41 15 C-39.20397717 7.37288971 -34.40603084 2.29415254 -28 -2 C-18.71233699 -6.5330883 -8.50885668 -5.89992868 0 0 Z " fill="#020302" transform="translate(227,103)"/>
<path d="M0 0 C6.55222083 4.5404755 11.37830515 10.01277396 13 18 C13.8371049 26.56422705 11.69168404 33.534906 6.52734375 40.39453125 C2.37109421 44.76337668 -3.05084966 47.77141274 -9.07421875 48.23828125 C-16.4035751 48.38883019 -21.91803969 48.29140752 -28 44 C-28.9075 43.38125 -29.815 42.7625 -30.75 42.125 C-36.76051342 36.44840399 -39.05394886 30.35640513 -39.4375 22.25 C-39.28201961 14.8692544 -37.03046747 9.49162557 -32.203125 3.9296875 C-22.68593126 -5.16874971 -11.47480906 -6.10553221 0 0 Z " fill="#020302" transform="translate(225,364)"/>
<path d="M0 0 C5.84708406 5.6229798 8.56310007 11.2814808 9.3125 19.375 C8.65114344 27.04673612 6.03826259 34.39409957 0.17578125 39.62890625 C-6.27091075 44.72486278 -11.8907175 46.56128778 -20.125 46.37109375 C-27.92142952 45.36476114 -33.79483555 41.16030223 -38.59375 35.09375 C-43.05187959 28.45609039 -43.8526856 21.90462596 -43 14 C-41.01764488 5.52471361 -36.31039958 0.94595041 -29.21875 -3.765625 C-19.52610595 -9.15801148 -8.57878636 -5.96360077 0 0 Z " fill="#020303" transform="translate(318,279)"/>
<path d="M0 0 C7.59414952 4.61122232 12.01468722 9.56870004 14.16796875 18.31640625 C15.53318397 26.64990746 12.5254229 33.74654711 7.98046875 40.62890625 C1.82530952 46.51050285 -5.06654922 49.70980585 -13.62890625 49.51953125 C-22.18439849 48.730727 -28.22862121 44.71550051 -33.83203125 38.31640625 C-38.04036233 32.12834953 -38.83476368 25.64565672 -37.83203125 18.31640625 C-36.07159446 11.18090803 -32.83305816 5.64219429 -26.83203125 1.31640625 C-18.07368962 -3.64420069 -9.08733092 -4.61604243 0 0 Z " fill="#020303" transform="translate(401.83203125,188.68359375)"/>
<path d="M0 0 C5.15413396 4.57292311 7.71135307 9.84722052 9.0859375 16.56640625 C9.46242759 23.48441173 8.23436336 29.92788489 4.0859375 35.56640625 C-2.05111907 42.19709563 -8.09018513 45.64917122 -17.2265625 46.06640625 C-24.86640075 45.84712272 -30.58577767 43.9318095 -36.015625 38.44140625 C-41.74630958 31.46081928 -43.42597258 25.58339354 -43.21484375 16.59375 C-42.38504814 8.24191103 -38.45325207 3.55231727 -32.23046875 -1.8046875 C-21.98603733 -9.00861314 -9.58501034 -7.17897713 0 0 Z " fill="#020303" transform="translate(317.9140625,104.43359375)"/>
<path d="M0 0 C5.24835301 3.73890934 9.24232947 8.16145224 11.86328125 14.05859375 C13.0872246 22.93218305 13.15009445 30.81283927 8.36328125 38.68359375 C3.49536831 44.29066917 -2.12293069 48.15639278 -9.61328125 49.03125 C-18.30929467 49.42837473 -24.80295438 47.81072731 -31.48046875 42.109375 C-36.47920077 36.85335531 -38.67668494 30.48984975 -39.07421875 23.30859375 C-38.8110894 16.49115148 -36.54773593 9.98661445 -32.19921875 4.74609375 C-31.35359375 4.06546875 -30.50796875 3.38484375 -29.63671875 2.68359375 C-28.43015625 1.60078125 -28.43015625 1.60078125 -27.19921875 0.49609375 C-18.91441264 -5.36389106 -8.62063192 -4.85340202 0 0 Z " fill="#020302" transform="translate(135.63671875,276.31640625)"/>
<path d="M0 0 C5.74667999 5.42741999 8.21200766 11.61817836 8.625 19.4375 C8.4197838 26.52349461 5.85623215 32.7826357 1.0625 38 C-5.80477372 44.14134626 -12.51818376 45.83410804 -21.66796875 45.50390625 C-29.48193563 44.54325379 -34.91220417 40.16903671 -39.75 34.125 C-43.87661906 26.97219363 -44.73222869 18.76249916 -42.625 10.8125 C-39.56738401 2.21040701 -33.80575981 -2.01075272 -25.75 -5.875 C-16.08319592 -8.49090033 -7.95099696 -5.42113429 0 0 Z " fill="#020303" transform="translate(407.75,104.875)"/>
<path d="M0 0 C5.49649003 4.928587 8.47377205 9.6350776 9.37109375 17.078125 C9.55291796 25.76290483 8.19725308 32.19149647 2.390625 38.84375 C-3.96889932 44.7948645 -10.73403889 46.55842615 -19.32421875 46.28515625 C-26.19489175 45.55295314 -31.09621734 42.90378266 -36 38 C-42.03719783 29.66214029 -42.91106615 22.13825935 -42 12 C-40.90442299 8.6979104 -39.37052568 6.52048594 -37 4 C-36.41863281 3.36449219 -35.83726563 2.72898437 -35.23828125 2.07421875 C-24.79672385 -8.15554235 -11.76536489 -7.88240618 0 0 Z " fill="#020302" transform="translate(139,104)"/>
</svg>
