<svg version="1.1" xmlns="http://www.w3.org/2000/svg" xmlns:xlink="http://www.w3.org/1999/xlink" width="202" height="1352"><defs/><g transform="translate(-11,31) scale(1,1)"><path fill="none" stroke="rgb(153,153,153)" paint-order="fill stroke markers" d=" M 112 0 L 112 100" stroke-opacity="1" stroke-linejoin="round" stroke-miterlimit="10" stroke-width="3"/><path fill="none" stroke="rgb(153,153,153)" paint-order="fill stroke markers" d=" M 112 100 L 112 200" stroke-opacity="1" stroke-linejoin="round" stroke-miterlimit="10" stroke-width="3"/><path fill="none" stroke="rgb(153,153,153)" paint-order="fill stroke markers" d=" M 112 200 L 112 300" stroke-opacity="1" stroke-linejoin="round" stroke-miterlimit="10" stroke-width="3"/><path fill="none" stroke="rgb(153,153,153)" paint-order="fill stroke markers" d=" M 112 300 L 112 400" stroke-opacity="1" stroke-linejoin="round" stroke-miterlimit="10" stroke-width="3"/><path fill="none" stroke="rgb(153,153,153)" paint-order="fill stroke markers" d=" M 112 400 L 112 500" stroke-opacity="1" stroke-linejoin="round" stroke-miterlimit="10" stroke-width="3"/><path fill="none" stroke="rgb(153,153,153)" paint-order="fill stroke markers" d=" M 112 500 L 112 600" stroke-opacity="1" stroke-linejoin="round" stroke-miterlimit="10" stroke-width="3"/><path fill="none" stroke="rgb(153,153,153)" paint-order="fill stroke markers" d=" M 112 600 L 112 700" stroke-opacity="1" stroke-linejoin="round" stroke-miterlimit="10" stroke-width="3"/><path fill="none" stroke="rgb(153,153,153)" paint-order="fill stroke markers" d=" M 112 700 L 112 800" stroke-opacity="1" stroke-linejoin="round" stroke-miterlimit="10" stroke-width="3"/><path fill="none" stroke="rgb(153,153,153)" paint-order="fill stroke markers" d=" M 112 800 L 112 900" stroke-opacity="1" stroke-linejoin="round" stroke-miterlimit="10" stroke-width="3"/><path fill="none" stroke="rgb(153,153,153)" paint-order="fill stroke markers" d=" M 112 900 L 112 1000" stroke-opacity="1" stroke-linejoin="round" stroke-miterlimit="10" stroke-width="3"/><path fill="none" stroke="rgb(153,153,153)" paint-order="fill stroke markers" d=" M 112 1000 L 112 1100" stroke-opacity="1" stroke-linejoin="round" stroke-miterlimit="10" stroke-width="3"/><path fill="none" stroke="rgb(153,153,153)" paint-order="fill stroke markers" d=" M 112 1100 L 112 1200" stroke-opacity="1" stroke-linejoin="round" stroke-miterlimit="10" stroke-width="3"/><path fill="none" stroke="rgb(153,153,153)" paint-order="fill stroke markers" d=" M 112 1200 L 112 1300" stroke-opacity="1" stroke-linejoin="round" stroke-miterlimit="10" stroke-width="3"/><path fill="rgb(174,147,39)" stroke="none" paint-order="stroke fill markers" d=" M 172 0 L 171.81504002398768 2.353772871835348 L 171.26130043570828 4.693033951206926 L 170.34219522386059 7.0033609156771615 L 169.06339097770922 9.270509831248422 L 167.4327719506772 11.480502970952694 L 165.4603914513021 13.619714992186402 L 163.15840986124553 15.674956941478463 L 160.54101966249686 17.633557568774194 L 157.62435793600184 19.48344144990551 L 154.42640687119285 21.213203435596423 L 150.96688289981103 22.81217896800093 L 147.2671151375484 24.270509831248425 L 143.34991388295694 25.579204930622765 L 139.2394299843728 26.730195725651033 L 134.9610059419054 27.716385975338603 L 130.54101966249684 28.531695488854606 L 126.00672183135433 29.171097611930296 L 121.38606790241386 29.630650217854132 L 116.70754574367069 29.90752001199384 L 112 30 L 107.29245425632931 29.90752001199384 L 102.61393209758614 29.630650217854132 L 97.99327816864567 29.1710976119303 L 93.45898033750316 28.53169548885461 L 89.03899405809462 27.716385975338603 L 84.7605700156272 26.730195725651036 L 80.65008611704307 25.57920493062277 L 76.73288486245161 24.270509831248425 L 73.03311710018899 22.812178968000932 L 69.57359312880715 21.213203435596427 L 66.37564206399814 19.483441449905513 L 63.45898033750316 17.633557568774197 L 60.84159013875447 15.674956941478467 L 58.539608548697935 13.619714992186406 L 56.56722804932279 11.480502970952697 L 54.93660902229079 9.270509831248425 L 53.65780477613941 7.003360915677166 L 52.73869956429174 4.693033951206929 L 52.18495997601232 2.353772871835352 L 52 3.67394039744206e-15 L 52.18495997601232 -2.3537728718353446 L 52.738699564291736 -4.693033951206922 L 53.6578047761394 -7.003360915677159 L 54.93660902229078 -9.270509831248418 L 56.567228049322786 -11.48050297095269 L 58.53960854869793 -13.6197149921864 L 60.84159013875446 -15.674956941478461 L 63.45898033750315 -17.63355756877419 L 66.37564206399813 -19.483441449905506 L 69.57359312880715 -21.213203435596423 L 73.03311710018895 -22.812178968000918 L 76.73288486245161 -24.27050983124842 L 80.65008611704309 -25.579204930622772 L 84.76057001562722 -26.730195725651047 L 89.03899405809469 -27.716385975338614 L 93.45898033750325 -28.531695488854623 L 97.99327816864579 -29.171097611930314 L 102.6139320975863 -29.630650217854143 L 107.29245425632948 -29.907520011993846 L 112.0000000000002 -30 L 116.70754574367092 -29.907520011993828 L 121.3860679024141 -29.630650217854114 L 126.0067218313546 -29.171097611930268 L 130.54101966249715 -28.53169548885456 L 134.96100594190568 -27.71638597533854 L 139.23942998437312 -26.730195725650955 L 143.34991388295725 -25.579204930622666 L 147.26711513754873 -24.2705098312483 L 150.96688289981137 -22.812178968000786 L 154.4264068711932 -21.21320343559626 L 157.62435793600218 -19.483441449905325 L 160.54101966249715 -17.633557568773984 L 163.15840986124581 -15.674956941478234 L 165.46039145130234 -13.61971499218615 L 167.43277195067742 -11.480502970952417 L 169.0633909777094 -9.270509831248125 L 170.34219522386076 -7.003360915676845 L 171.26130043570836 -4.6930339512065915 L 171.81504002398773 -2.353772871834997 Z" fill-opacity="1"/><text fill="rgb(255,255,255)" stroke="none" font-family="Helvetica Neue, Helvetica, sans-serif" font-size="16px" font-style="normal" font-weight="normal" text-decoration="normal" x="112" y="8" text-anchor="middle" dominant-baseline="text-after-edge" fill-opacity="1">Ticker</text><path fill="rgb(39,174,96)" stroke="none" paint-order="stroke fill markers" d=" M 212 100 L 211.6917333733128 103.1383638291138 L 210.76883405951378 106.25737860160923 L 209.23699203976764 109.33781455423622 L 207.10565162951536 112.36067977499789 L 204.3879532511287 115.3073372946036 L 201.10065241883677 118.15961998958187 L 197.26401643540922 120.89994258863796 L 192.90169943749476 123.51141009169893 L 188.0405965600031 125.97792193320734 L 182.71067811865476 128.2842712474619 L 176.94480483301837 130.41623862400124 L 170.77852522924732 132.3606797749979 L 164.24985647159488 134.1056065741637 L 157.39904997395467 135.64026096753472 L 150.268343236509 136.95518130045147 L 142.90169943749476 138.04226065180615 L 135.34453638559054 138.89479681590706 L 127.64344650402309 139.5075336238055 L 119.8459095727845 139.8766933493251 L 112 140 L 104.15409042721551 139.8766933493251 L 96.35655349597693 139.5075336238055 L 88.65546361440947 138.89479681590706 L 81.09830056250527 138.04226065180615 L 73.73165676349103 136.95518130045147 L 66.60095002604533 135.64026096753472 L 59.75014352840512 134.1056065741637 L 53.2214747707527 132.3606797749979 L 47.05519516698165 130.41623862400124 L 41.28932188134526 128.2842712474619 L 35.959403439996905 125.97792193320736 L 31.098300562505273 123.51141009169893 L 26.735983564590782 120.89994258863796 L 22.899347581163227 118.15961998958187 L 19.61204674887132 115.3073372946036 L 16.89434837048465 112.3606797749979 L 14.763007960232343 109.33781455423622 L 13.231165940486235 106.25737860160923 L 12.3082666266872 103.1383638291138 L 12 100 L 12.3082666266872 96.86163617088621 L 13.231165940486221 93.74262139839077 L 14.76300796023233 90.66218544576378 L 16.894348370484636 87.63932022500211 L 19.61204674887132 84.69266270539642 L 22.899347581163212 81.84038001041813 L 26.735983564590768 79.10005741136206 L 31.098300562505244 76.48858990830108 L 35.95940343999689 74.02207806679266 L 41.28932188134523 71.7157287525381 L 47.05519516698159 69.58376137599878 L 53.22147477075268 67.63932022500211 L 59.75014352840514 65.89439342583631 L 66.60095002604538 64.35973903246527 L 73.73165676349113 63.044818699548514 L 81.09830056250541 61.95773934819384 L 88.65546361440965 61.105203184092915 L 96.35655349597715 60.49246637619448 L 104.15409042721579 60.12330665067487 L 112.00000000000034 60 L 119.84590957278488 60.12330665067489 L 127.6434465040235 60.492466376194514 L 135.344536385591 61.10520318409298 L 142.90169943749524 61.95773934819392 L 150.2683432365095 63.044818699548614 L 157.39904997395521 64.3597390324654 L 164.24985647159542 65.89439342583645 L 170.77852522924786 67.63932022500227 L 176.9448048330189 69.58376137599896 L 182.7106781186553 71.71572875253833 L 188.04059656000362 74.0220780667929 L 192.90169943749527 76.48858990830135 L 197.2640164354097 79.10005741136236 L 201.10065241883723 81.84038001041847 L 204.38795325112906 84.69266270539677 L 207.10565162951568 87.6393202250025 L 209.23699203976793 90.66218544576421 L 210.76883405951395 93.74262139839121 L 211.6917333733129 96.86163617088667 Z" fill-opacity="1"/><text fill="rgb(255,255,255)" stroke="none" font-family="Helvetica Neue, Helvetica, sans-serif" font-size="16px" font-style="normal" font-weight="normal" text-decoration="normal" x="112" y="108" text-anchor="middle" dominant-baseline="text-after-edge" fill-opacity="1">tick0</text><path fill="rgb(46,134,222)" stroke="none" paint-order="stroke fill markers" d=" M 12.000000000000028 180 L 12 220 L 211.99999999999994 220 L 212 180 Z" fill-opacity="1"/><text fill="rgb(255,255,255)" stroke="none" font-family="Helvetica Neue, Helvetica, sans-serif" font-size="16px" font-style="normal" font-weight="normal" text-decoration="normal" x="112" y="208" text-anchor="middle" dominant-baseline="text-after-edge" fill-opacity="1">Ticker(Event)</text><path fill="rgb(39,174,96)" stroke="none" paint-order="stroke fill markers" d=" M 212 300 L 211.6917333733128 303.1383638291138 L 210.76883405951378 306.2573786016092 L 209.23699203976764 309.3378145542362 L 207.10565162951536 312.3606797749979 L 204.3879532511287 315.3073372946036 L 201.10065241883677 318.15961998958187 L 197.26401643540922 320.89994258863794 L 192.90169943749476 323.5114100916989 L 188.0405965600031 325.97792193320737 L 182.71067811865476 328.2842712474619 L 176.94480483301837 330.41623862400127 L 170.77852522924732 332.3606797749979 L 164.24985647159488 334.1056065741637 L 157.39904997395467 335.6402609675347 L 150.268343236509 336.9551813004515 L 142.90169943749476 338.04226065180615 L 135.34453638559054 338.89479681590706 L 127.64344650402309 339.5075336238055 L 119.8459095727845 339.87669334932514 L 112 340 L 104.15409042721551 339.87669334932514 L 96.35655349597693 339.5075336238055 L 88.65546361440947 338.89479681590706 L 81.09830056250527 338.04226065180615 L 73.73165676349103 336.9551813004515 L 66.60095002604533 335.6402609675347 L 59.75014352840512 334.1056065741637 L 53.2214747707527 332.3606797749979 L 47.05519516698165 330.41623862400127 L 41.28932188134526 328.2842712474619 L 35.959403439996905 325.97792193320737 L 31.098300562505273 323.5114100916989 L 26.735983564590782 320.89994258863794 L 22.899347581163227 318.15961998958187 L 19.61204674887132 315.3073372946036 L 16.89434837048465 312.3606797749979 L 14.763007960232343 309.3378145542362 L 13.231165940486235 306.2573786016092 L 12.3082666266872 303.1383638291138 L 12 300 L 12.3082666266872 296.8616361708862 L 13.231165940486221 293.7426213983908 L 14.76300796023233 290.6621854457638 L 16.894348370484636 287.6393202250021 L 19.61204674887132 284.6926627053964 L 22.899347581163212 281.84038001041813 L 26.735983564590768 279.10005741136206 L 31.098300562505244 276.4885899083011 L 35.95940343999689 274.0220780667927 L 41.28932188134523 271.7157287525381 L 47.05519516698159 269.5837613759988 L 53.22147477075268 267.6393202250021 L 59.75014352840514 265.8943934258363 L 66.60095002604538 264.35973903246526 L 73.73165676349113 263.0448186995485 L 81.09830056250541 261.95773934819385 L 88.65546361440965 261.10520318409294 L 96.35655349597715 260.4924663761945 L 104.15409042721579 260.12330665067486 L 112.00000000000034 260 L 119.84590957278488 260.12330665067486 L 127.6434465040235 260.4924663761945 L 135.344536385591 261.105203184093 L 142.90169943749524 261.9577393481939 L 150.2683432365095 263.0448186995486 L 157.39904997395521 264.3597390324654 L 164.24985647159542 265.8943934258364 L 170.77852522924786 267.6393202250023 L 176.9448048330189 269.58376137599896 L 182.7106781186553 271.7157287525383 L 188.04059656000362 274.0220780667929 L 192.90169943749527 276.4885899083014 L 197.2640164354097 279.10005741136234 L 201.10065241883723 281.84038001041847 L 204.38795325112906 284.6926627053968 L 207.10565162951568 287.6393202250025 L 209.23699203976793 290.6621854457642 L 210.76883405951395 293.74262139839124 L 211.6917333733129 296.8616361708867 Z" fill-opacity="1"/><text fill="rgb(255,255,255)" stroke="none" font-family="Helvetica Neue, Helvetica, sans-serif" font-size="16px" font-style="normal" font-weight="normal" text-decoration="normal" x="112" y="308" text-anchor="middle" dominant-baseline="text-after-edge" fill-opacity="1">tick0(Event)</text><path fill="rgb(46,134,222)" stroke="none" paint-order="stroke fill markers" d=" M 12.000000000000028 380 L 12 420 L 211.99999999999994 420 L 212 380 Z" fill-opacity="1"/><text fill="rgb(255,255,255)" stroke="none" font-family="Helvetica Neue, Helvetica, sans-serif" font-size="16px" font-style="normal" font-weight="normal" text-decoration="normal" x="112" y="408" text-anchor="middle" dominant-baseline="text-after-edge" fill-opacity="1">Shard</text><path fill="rgb(39,174,96)" stroke="none" paint-order="stroke fill markers" d=" M 212 500 L 211.6917333733128 503.1383638291138 L 210.76883405951378 506.2573786016092 L 209.23699203976764 509.3378145542362 L 207.10565162951536 512.360679774998 L 204.3879532511287 515.3073372946036 L 201.10065241883677 518.1596199895819 L 197.26401643540922 520.8999425886379 L 192.90169943749476 523.511410091699 L 188.0405965600031 525.9779219332073 L 182.71067811865476 528.2842712474619 L 176.94480483301837 530.4162386240013 L 170.77852522924732 532.360679774998 L 164.24985647159488 534.1056065741636 L 157.39904997395467 535.6402609675347 L 150.268343236509 536.9551813004515 L 142.90169943749476 538.0422606518061 L 135.34453638559054 538.8947968159071 L 127.64344650402309 539.5075336238056 L 119.8459095727845 539.8766933493251 L 112 540 L 104.15409042721551 539.8766933493251 L 96.35655349597693 539.5075336238056 L 88.65546361440947 538.8947968159071 L 81.09830056250527 538.0422606518061 L 73.73165676349103 536.9551813004515 L 66.60095002604533 535.6402609675347 L 59.75014352840512 534.1056065741637 L 53.2214747707527 532.360679774998 L 47.05519516698165 530.4162386240013 L 41.28932188134526 528.2842712474619 L 35.959403439996905 525.9779219332073 L 31.098300562505273 523.511410091699 L 26.735983564590782 520.8999425886379 L 22.899347581163227 518.1596199895819 L 19.61204674887132 515.3073372946036 L 16.89434837048465 512.360679774998 L 14.763007960232343 509.3378145542362 L 13.231165940486235 506.2573786016092 L 12.3082666266872 503.1383638291138 L 12 500 L 12.3082666266872 496.8616361708862 L 13.231165940486221 493.7426213983908 L 14.76300796023233 490.6621854457638 L 16.894348370484636 487.6393202250021 L 19.61204674887132 484.6926627053964 L 22.899347581163212 481.84038001041813 L 26.735983564590768 479.10005741136206 L 31.098300562505244 476.4885899083011 L 35.95940343999689 474.0220780667927 L 41.28932188134523 471.7157287525381 L 47.05519516698159 469.5837613759988 L 53.22147477075268 467.6393202250021 L 59.75014352840514 465.8943934258363 L 66.60095002604538 464.35973903246526 L 73.73165676349113 463.0448186995485 L 81.09830056250541 461.95773934819385 L 88.65546361440965 461.10520318409294 L 96.35655349597715 460.4924663761945 L 104.15409042721579 460.12330665067486 L 112.00000000000034 460 L 119.84590957278488 460.12330665067486 L 127.6434465040235 460.4924663761945 L 135.344536385591 461.105203184093 L 142.90169943749524 461.9577393481939 L 150.2683432365095 463.0448186995486 L 157.39904997395521 464.3597390324654 L 164.24985647159542 465.8943934258364 L 170.77852522924786 467.6393202250023 L 176.9448048330189 469.58376137599896 L 182.7106781186553 471.7157287525383 L 188.04059656000362 474.0220780667929 L 192.90169943749527 476.4885899083014 L 197.2640164354097 479.10005741136234 L 201.10065241883723 481.84038001041847 L 204.38795325112906 484.6926627053968 L 207.10565162951568 487.6393202250025 L 209.23699203976793 490.6621854457642 L 210.76883405951395 493.74262139839124 L 211.6917333733129 496.8616361708867 Z" fill-opacity="1"/><text fill="rgb(255,255,255)" stroke="none" font-family="Helvetica Neue, Helvetica, sans-serif" font-size="16px" font-style="normal" font-weight="normal" text-decoration="normal" x="112" y="508" text-anchor="middle" dominant-baseline="text-after-edge" fill-opacity="1">Completed0(Event)</text><path fill="rgb(46,134,222)" stroke="none" paint-order="stroke fill markers" d=" M 12.000000000000028 580 L 12 620 L 211.99999999999994 620 L 212 580 Z" fill-opacity="1"/><text fill="rgb(255,255,255)" stroke="none" font-family="Helvetica Neue, Helvetica, sans-serif" font-size="16px" font-style="normal" font-weight="normal" text-decoration="normal" x="112" y="608" text-anchor="middle" dominant-baseline="text-after-edge" fill-opacity="1">Completed0</text><path fill="rgb(46,134,222)" stroke="none" paint-order="stroke fill markers" d=" M 12.000000000000028 680 L 12 720 L 211.99999999999994 720 L 212 680 Z" fill-opacity="1"/><text fill="rgb(255,255,255)" stroke="none" font-family="Helvetica Neue, Helvetica, sans-serif" font-size="16px" font-style="normal" font-weight="normal" text-decoration="normal" x="112" y="708" text-anchor="middle" dominant-baseline="text-after-edge" fill-opacity="1">Ticker</text><path fill="rgb(39,174,96)" stroke="none" paint-order="stroke fill markers" d=" M 212 800 L 211.6917333733128 803.1383638291138 L 210.76883405951378 806.2573786016093 L 209.23699203976764 809.3378145542362 L 207.10565162951536 812.360679774998 L 204.3879532511287 815.3073372946036 L 201.10065241883677 818.1596199895819 L 197.26401643540922 820.8999425886379 L 192.90169943749476 823.511410091699 L 188.0405965600031 825.9779219332073 L 182.71067811865476 828.2842712474619 L 176.94480483301837 830.4162386240013 L 170.77852522924732 832.360679774998 L 164.24985647159488 834.1056065741636 L 157.39904997395467 835.6402609675347 L 150.268343236509 836.9551813004515 L 142.90169943749476 838.0422606518061 L 135.34453638559054 838.8947968159071 L 127.64344650402309 839.5075336238056 L 119.8459095727845 839.8766933493251 L 112 840 L 104.15409042721551 839.8766933493251 L 96.35655349597693 839.5075336238056 L 88.65546361440947 838.8947968159071 L 81.09830056250527 838.0422606518061 L 73.73165676349103 836.9551813004515 L 66.60095002604533 835.6402609675347 L 59.75014352840512 834.1056065741637 L 53.2214747707527 832.360679774998 L 47.05519516698165 830.4162386240013 L 41.28932188134526 828.2842712474619 L 35.959403439996905 825.9779219332073 L 31.098300562505273 823.511410091699 L 26.735983564590782 820.8999425886379 L 22.899347581163227 818.1596199895819 L 19.61204674887132 815.3073372946036 L 16.89434837048465 812.360679774998 L 14.763007960232343 809.3378145542363 L 13.231165940486235 806.2573786016093 L 12.3082666266872 803.1383638291138 L 12 800 L 12.3082666266872 796.8616361708862 L 13.231165940486221 793.7426213983907 L 14.76300796023233 790.6621854457638 L 16.894348370484636 787.6393202250022 L 19.61204674887132 784.6926627053964 L 22.899347581163212 781.8403800104181 L 26.735983564590768 779.1000574113621 L 31.098300562505244 776.488589908301 L 35.95940343999689 774.0220780667927 L 41.28932188134523 771.7157287525381 L 47.05519516698159 769.5837613759987 L 53.22147477075268 767.6393202250022 L 59.75014352840514 765.8943934258363 L 66.60095002604538 764.3597390324653 L 73.73165676349113 763.0448186995485 L 81.09830056250541 761.9577393481939 L 88.65546361440965 761.1052031840929 L 96.35655349597715 760.4924663761944 L 104.15409042721579 760.1233066506749 L 112.00000000000034 760 L 119.84590957278488 760.1233066506749 L 127.6434465040235 760.4924663761946 L 135.344536385591 761.1052031840929 L 142.90169943749524 761.957739348194 L 150.2683432365095 763.0448186995486 L 157.39904997395521 764.3597390324654 L 164.24985647159542 765.8943934258365 L 170.77852522924786 767.6393202250023 L 176.9448048330189 769.583761375999 L 182.7106781186553 771.7157287525383 L 188.04059656000362 774.0220780667929 L 192.90169943749527 776.4885899083014 L 197.2640164354097 779.1000574113624 L 201.10065241883723 781.8403800104185 L 204.38795325112906 784.6926627053967 L 207.10565162951568 787.6393202250025 L 209.23699203976793 790.6621854457642 L 210.76883405951395 793.7426213983912 L 211.6917333733129 796.8616361708866 Z" fill-opacity="1"/><text fill="rgb(255,255,255)" stroke="none" font-family="Helvetica Neue, Helvetica, sans-serif" font-size="16px" font-style="normal" font-weight="normal" text-decoration="normal" x="112" y="808" text-anchor="middle" dominant-baseline="text-after-edge" fill-opacity="1">tick1</text><path fill="rgb(46,134,222)" stroke="none" paint-order="stroke fill markers" d=" M 12.000000000000028 880 L 12 920 L 211.99999999999994 920 L 212 880 Z" fill-opacity="1"/><text fill="rgb(255,255,255)" stroke="none" font-family="Helvetica Neue, Helvetica, sans-serif" font-size="16px" font-style="normal" font-weight="normal" text-decoration="normal" x="112" y="908" text-anchor="middle" dominant-baseline="text-after-edge" fill-opacity="1">Ticker(Event)</text><path fill="rgb(39,174,96)" stroke="none" paint-order="stroke fill markers" d=" M 212 1000 L 211.6917333733128 1003.1383638291138 L 210.76883405951378 1006.2573786016093 L 209.23699203976764 1009.3378145542362 L 207.10565162951536 1012.360679774998 L 204.3879532511287 1015.3073372946036 L 201.10065241883677 1018.1596199895819 L 197.26401643540922 1020.8999425886379 L 192.90169943749476 1023.511410091699 L 188.0405965600031 1025.9779219332074 L 182.71067811865476 1028.284271247462 L 176.94480483301837 1030.4162386240012 L 170.77852522924732 1032.3606797749978 L 164.24985647159488 1034.1056065741636 L 157.39904997395467 1035.6402609675347 L 150.268343236509 1036.9551813004514 L 142.90169943749476 1038.0422606518061 L 135.34453638559054 1038.894796815907 L 127.64344650402309 1039.5075336238056 L 119.8459095727845 1039.876693349325 L 112 1040 L 104.15409042721551 1039.876693349325 L 96.35655349597693 1039.5075336238056 L 88.65546361440947 1038.894796815907 L 81.09830056250527 1038.0422606518061 L 73.73165676349103 1036.9551813004514 L 66.60095002604533 1035.6402609675347 L 59.75014352840512 1034.1056065741636 L 53.2214747707527 1032.3606797749978 L 47.05519516698165 1030.4162386240012 L 41.28932188134526 1028.284271247462 L 35.959403439996905 1025.9779219332074 L 31.098300562505273 1023.511410091699 L 26.735983564590782 1020.8999425886379 L 22.899347581163227 1018.1596199895819 L 19.61204674887132 1015.3073372946036 L 16.89434837048465 1012.360679774998 L 14.763007960232343 1009.3378145542363 L 13.231165940486235 1006.2573786016093 L 12.3082666266872 1003.1383638291138 L 12 1000 L 12.3082666266872 996.8616361708862 L 13.231165940486221 993.7426213983907 L 14.76300796023233 990.6621854457638 L 16.894348370484636 987.6393202250022 L 19.61204674887132 984.6926627053964 L 22.899347581163212 981.8403800104181 L 26.735983564590768 979.1000574113621 L 31.098300562505244 976.488589908301 L 35.95940343999689 974.0220780667927 L 41.28932188134523 971.7157287525381 L 47.05519516698159 969.5837613759987 L 53.22147477075268 967.6393202250022 L 59.75014352840514 965.8943934258363 L 66.60095002604538 964.3597390324653 L 73.73165676349113 963.0448186995485 L 81.09830056250541 961.9577393481939 L 88.65546361440965 961.1052031840929 L 96.35655349597715 960.4924663761944 L 104.15409042721579 960.1233066506749 L 112.00000000000034 960 L 119.84590957278488 960.1233066506749 L 127.6434465040235 960.4924663761946 L 135.344536385591 961.1052031840929 L 142.90169943749524 961.957739348194 L 150.2683432365095 963.0448186995486 L 157.39904997395521 964.3597390324654 L 164.24985647159542 965.8943934258365 L 170.77852522924786 967.6393202250023 L 176.9448048330189 969.583761375999 L 182.7106781186553 971.7157287525383 L 188.04059656000362 974.0220780667929 L 192.90169943749527 976.4885899083014 L 197.2640164354097 979.1000574113624 L 201.10065241883723 981.8403800104185 L 204.38795325112906 984.6926627053967 L 207.10565162951568 987.6393202250025 L 209.23699203976793 990.6621854457642 L 210.76883405951395 993.7426213983912 L 211.6917333733129 996.8616361708866 Z" fill-opacity="1"/><text fill="rgb(255,255,255)" stroke="none" font-family="Helvetica Neue, Helvetica, sans-serif" font-size="16px" font-style="normal" font-weight="normal" text-decoration="normal" x="112" y="1008" text-anchor="middle" dominant-baseline="text-after-edge" fill-opacity="1">tick1(Event)</text><path fill="rgb(46,134,222)" stroke="none" paint-order="stroke fill markers" d=" M 12.000000000000028 1080 L 12 1120 L 211.99999999999994 1120 L 212 1080 Z" fill-opacity="1"/><text fill="rgb(255,255,255)" stroke="none" font-family="Helvetica Neue, Helvetica, sans-serif" font-size="16px" font-style="normal" font-weight="normal" text-decoration="normal" x="112" y="1108" text-anchor="middle" dominant-baseline="text-after-edge" fill-opacity="1">Shard</text><path fill="rgb(39,174,96)" stroke="none" paint-order="stroke fill markers" d=" M 212 1200 L 211.6917333733128 1203.1383638291138 L 210.76883405951378 1206.2573786016092 L 209.23699203976764 1209.3378145542363 L 207.10565162951536 1212.3606797749978 L 204.3879532511287 1215.3073372946035 L 201.10065241883677 1218.1596199895819 L 197.26401643540922 1220.899942588638 L 192.90169943749476 1223.511410091699 L 188.0405965600031 1225.9779219332074 L 182.71067811865476 1228.284271247462 L 176.94480483301837 1230.4162386240012 L 170.77852522924732 1232.3606797749978 L 164.24985647159488 1234.1056065741636 L 157.39904997395467 1235.6402609675347 L 150.268343236509 1236.9551813004514 L 142.90169943749476 1238.0422606518061 L 135.34453638559054 1238.894796815907 L 127.64344650402309 1239.5075336238056 L 119.8459095727845 1239.876693349325 L 112 1240 L 104.15409042721551 1239.876693349325 L 96.35655349597693 1239.5075336238056 L 88.65546361440947 1238.894796815907 L 81.09830056250527 1238.0422606518061 L 73.73165676349103 1236.9551813004514 L 66.60095002604533 1235.6402609675347 L 59.75014352840512 1234.1056065741636 L 53.2214747707527 1232.3606797749978 L 47.05519516698165 1230.4162386240012 L 41.28932188134526 1228.284271247462 L 35.959403439996905 1225.9779219332074 L 31.098300562505273 1223.511410091699 L 26.735983564590782 1220.899942588638 L 22.899347581163227 1218.1596199895819 L 19.61204674887132 1215.3073372946035 L 16.89434837048465 1212.3606797749978 L 14.763007960232343 1209.3378145542363 L 13.231165940486235 1206.2573786016092 L 12.3082666266872 1203.1383638291138 L 12 1200 L 12.3082666266872 1196.8616361708862 L 13.231165940486221 1193.7426213983908 L 14.76300796023233 1190.6621854457637 L 16.894348370484636 1187.6393202250022 L 19.61204674887132 1184.6926627053965 L 22.899347581163212 1181.8403800104181 L 26.735983564590768 1179.100057411362 L 31.098300562505244 1176.488589908301 L 35.95940343999689 1174.0220780667926 L 41.28932188134523 1171.715728752538 L 47.05519516698159 1169.5837613759988 L 53.22147477075268 1167.6393202250022 L 59.75014352840514 1165.8943934258364 L 66.60095002604538 1164.3597390324653 L 73.73165676349113 1163.0448186995486 L 81.09830056250541 1161.9577393481939 L 88.65546361440965 1161.105203184093 L 96.35655349597715 1160.4924663761944 L 104.15409042721579 1160.123306650675 L 112.00000000000034 1160 L 119.84590957278488 1160.123306650675 L 127.6434465040235 1160.4924663761944 L 135.344536385591 1161.105203184093 L 142.90169943749524 1161.9577393481939 L 150.2683432365095 1163.0448186995486 L 157.39904997395521 1164.3597390324653 L 164.24985647159542 1165.8943934258364 L 170.77852522924786 1167.6393202250022 L 176.9448048330189 1169.5837613759988 L 182.7106781186553 1171.7157287525383 L 188.04059656000362 1174.0220780667928 L 192.90169943749527 1176.4885899083013 L 197.2640164354097 1179.1000574113623 L 201.10065241883723 1181.8403800104184 L 204.38795325112906 1184.6926627053967 L 207.10565162951568 1187.6393202250024 L 209.23699203976793 1190.6621854457642 L 210.76883405951395 1193.7426213983913 L 211.6917333733129 1196.8616361708866 Z" fill-opacity="1"/><text fill="rgb(255,255,255)" stroke="none" font-family="Helvetica Neue, Helvetica, sans-serif" font-size="16px" font-style="normal" font-weight="normal" text-decoration="normal" x="112" y="1208" text-anchor="middle" dominant-baseline="text-after-edge" fill-opacity="1">Completed1(Event)</text><path fill="rgb(46,134,222)" stroke="none" paint-order="stroke fill markers" d=" M 12.000000000000028 1280 L 12 1320 L 211.99999999999994 1320 L 212 1280 Z" fill-opacity="1"/><text fill="rgb(255,255,255)" stroke="none" font-family="Helvetica Neue, Helvetica, sans-serif" font-size="16px" font-style="normal" font-weight="normal" text-decoration="normal" x="112" y="1308" text-anchor="middle" dominant-baseline="text-after-edge" fill-opacity="1">Completed1</text><g transform="scale(1,1) translate(11,-31)"/></g></svg>
