<svg version="1.1" xmlns="http://www.w3.org/2000/svg" xmlns:xlink="http://www.w3.org/1999/xlink" width="922" height="512"><defs/><g transform="translate(-11,31) scale(1,1)"><path fill="none" stroke="rgb(153,153,153)" paint-order="fill stroke markers" d=" M 362 0 L 112 200" stroke-opacity="1" stroke-linejoin="round" stroke-miterlimit="10" stroke-width="3"/><path fill="none" stroke="rgb(153,153,153)" paint-order="fill stroke markers" d=" M 362 0 L 352 200" stroke-opacity="1" stroke-linejoin="round" stroke-miterlimit="10" stroke-width="3"/><path fill="none" stroke="rgb(153,153,153)" paint-order="fill stroke markers" d=" M 102 0 L 112 200" stroke-opacity="1" stroke-linejoin="round" stroke-miterlimit="10" stroke-width="3"/><path fill="none" stroke="rgb(153,153,153)" paint-order="fill stroke markers" d=" M 102 0 L 352 200" stroke-opacity="1" stroke-linejoin="round" stroke-miterlimit="10" stroke-width="3"/><path fill="none" stroke="rgb(153,153,153)" paint-order="fill stroke markers" d=" M 842 0 L 832 200" stroke-opacity="1" stroke-linejoin="round" stroke-miterlimit="10" stroke-width="3"/><path fill="none" stroke="rgb(153,153,153)" paint-order="fill stroke markers" d=" M 842 0 L 592 200" stroke-opacity="1" stroke-linejoin="round" stroke-miterlimit="10" stroke-width="3"/><path fill="none" stroke="rgb(153,153,153)" paint-order="fill stroke markers" d=" M 582 0 L 832 200" stroke-opacity="1" stroke-linejoin="round" stroke-miterlimit="10" stroke-width="3"/><path fill="none" stroke="rgb(153,153,153)" paint-order="fill stroke markers" d=" M 582 0 L 592 200" stroke-opacity="1" stroke-linejoin="round" stroke-miterlimit="10" stroke-width="3"/><path fill="none" stroke="rgb(153,153,153)" paint-order="fill stroke markers" d=" M 112 200 L 472 400" stroke-opacity="1" stroke-linejoin="round" stroke-miterlimit="10" stroke-width="3"/><path fill="none" stroke="rgb(153,153,153)" paint-order="fill stroke markers" d=" M 352 200 L 472 400" stroke-opacity="1" stroke-linejoin="round" stroke-miterlimit="10" stroke-width="3"/><path fill="none" stroke="rgb(153,153,153)" paint-order="fill stroke markers" d=" M 832 200 L 472 400" stroke-opacity="1" stroke-linejoin="round" stroke-miterlimit="10" stroke-width="3"/><path fill="none" stroke="rgb(153,153,153)" paint-order="fill stroke markers" d=" M 592 200 L 472 400" stroke-opacity="1" stroke-linejoin="round" stroke-miterlimit="10" stroke-width="3"/><path fill="rgb(14,165,233)" stroke="none" paint-order="stroke fill markers" d=" M 432 0 L 431.78421336131896 2.353772871835348 L 431.1381838416596 4.693033951206926 L 430.06589442783735 7.0033609156771615 L 428.57395614066075 9.270509831248422 L 426.67156727579004 11.480502970952694 L 424.37045669318576 13.619714992186402 L 421.68481150478647 15.674956941478463 L 418.6311896062463 17.633557568774194 L 415.2284175920022 19.48344144990551 L 411.49747468305833 21.213203435596423 L 407.4613633831128 22.81217896800093 L 403.1449676604731 24.270509831248425 L 398.57489953011645 25.579204930622765 L 393.7793349817683 26.730195725651033 L 388.78784026555627 27.716385975338603 L 383.6311896062463 28.531695488854606 L 378.34117546991337 29.171097611930296 L 372.95041255281615 29.630650217854132 L 367.4921367009492 29.90752001199384 L 362 30 L 356.5078632990509 29.90752001199384 L 351.04958744718385 29.630650217854132 L 345.65882453008663 29.1710976119303 L 340.3688103937537 28.53169548885461 L 335.21215973444373 27.716385975338603 L 330.2206650182317 26.730195725651036 L 325.4251004698836 25.57920493062277 L 320.8550323395269 24.270509831248425 L 316.5386366168872 22.812178968000932 L 312.50252531694167 21.213203435596427 L 308.7715824079978 19.483441449905513 L 305.3688103937537 17.633557568774197 L 302.31518849521353 15.674956941478467 L 299.62954330681424 13.619714992186406 L 297.32843272420996 11.480502970952697 L 295.42604385933925 9.270509831248425 L 293.93410557216265 7.003360915677166 L 292.8618161583404 4.693033951206929 L 292.21578663868104 2.353772871835352 L 292 3.67394039744206e-15 L 292.21578663868104 -2.3537728718353446 L 292.8618161583404 -4.693033951206922 L 293.93410557216265 -7.003360915677159 L 295.42604385933925 -9.270509831248418 L 297.3284327242099 -11.48050297095269 L 299.62954330681424 -13.6197149921864 L 302.31518849521353 -15.674956941478461 L 305.3688103937537 -17.63355756877419 L 308.7715824079978 -19.483441449905506 L 312.50252531694167 -21.213203435596423 L 316.5386366168871 -22.812178968000918 L 320.8550323395269 -24.27050983124842 L 325.4251004698836 -25.579204930622772 L 330.2206650182318 -26.730195725651047 L 335.2121597344438 -27.716385975338614 L 340.3688103937538 -28.531695488854623 L 345.65882453008675 -29.171097611930314 L 351.049587447184 -29.630650217854143 L 356.50786329905105 -29.907520011993846 L 362.0000000000002 -30 L 367.4921367009494 -29.907520011993828 L 372.95041255281643 -29.630650217854114 L 378.3411754699137 -29.171097611930268 L 383.63118960624666 -28.53169548885456 L 388.78784026555667 -27.71638597533854 L 393.77933498176867 -26.730195725650955 L 398.5748995301168 -25.579204930622666 L 403.1449676604735 -24.2705098312483 L 407.4613633831132 -22.812178968000786 L 411.4974746830587 -21.21320343559626 L 415.22841759200253 -19.483441449905325 L 418.63118960624666 -17.633557568773984 L 421.6848115047868 -15.674956941478234 L 424.37045669318604 -13.61971499218615 L 426.6715672757903 -11.480502970952417 L 428.573956140661 -9.270509831248125 L 430.0658944278375 -7.003360915676845 L 431.1381838416598 -4.6930339512065915 L 431.784213361319 -2.353772871834997 Z" fill-opacity="1"/><text fill="rgb(13,17,23)" stroke="none" font-family="Segoe UI, sans-serif" font-size="18px" font-style="normal" font-weight="500" text-decoration="normal" x="362" y="9" text-anchor="middle" dominant-baseline="text-after-edge" fill-opacity="1">Client 1</text><path fill="rgb(14,165,233)" stroke="none" paint-order="stroke fill markers" d=" M 172 0 L 171.78421336131896 2.353772871835348 L 171.13818384165964 4.693033951206926 L 170.06589442783735 7.0033609156771615 L 168.57395614066075 9.270509831248422 L 166.67156727579007 11.480502970952694 L 164.37045669318576 13.619714992186402 L 161.68481150478647 15.674956941478463 L 158.63118960624632 17.633557568774194 L 155.22841759200216 19.48344144990551 L 151.49747468305833 21.213203435596423 L 147.46136338311285 22.81217896800093 L 143.14496766047313 24.270509831248425 L 138.57489953011643 25.579204930622765 L 133.77933498176827 26.730195725651033 L 128.7878402655563 27.716385975338603 L 123.63118960624632 28.531695488854606 L 118.34117546991338 29.171097611930296 L 112.95041255281616 29.630650217854132 L 107.49213670094915 29.90752001199384 L 102 30 L 96.50786329905085 29.90752001199384 L 91.04958744718384 29.630650217854132 L 85.65882453008663 29.1710976119303 L 80.36881039375369 28.53169548885461 L 75.21215973444372 27.716385975338603 L 70.22066501823173 26.730195725651036 L 65.42510046988357 25.57920493062277 L 60.855032339526886 24.270509831248425 L 56.53863661688715 22.812178968000932 L 52.50252531694168 21.213203435596427 L 48.77158240799783 19.483441449905513 L 45.368810393753684 17.633557568774197 L 42.31518849521355 15.674956941478467 L 39.629543306814256 13.619714992186406 L 37.32843272420993 11.480502970952697 L 35.42604385933926 9.270509831248425 L 33.934105572162636 7.003360915677166 L 32.86181615834036 4.693033951206929 L 32.21578663868104 2.353772871835352 L 32 3.67394039744206e-15 L 32.21578663868104 -2.3537728718353446 L 32.86181615834036 -4.693033951206922 L 33.934105572162636 -7.003360915677159 L 35.426043859339245 -9.270509831248418 L 37.32843272420992 -11.48050297095269 L 39.62954330681425 -13.6197149921864 L 42.31518849521354 -15.674956941478461 L 45.36881039375367 -17.63355756877419 L 48.771582407997826 -19.483441449905506 L 52.502525316941664 -21.213203435596423 L 56.53863661688711 -22.812178968000918 L 60.85503233952687 -24.27050983124842 L 65.4251004698836 -25.579204930622772 L 70.22066501823177 -26.730195725651047 L 75.21215973444379 -27.716385975338614 L 80.36881039375379 -28.531695488854623 L 85.65882453008676 -29.171097611930314 L 91.04958744718401 -29.630650217854143 L 96.50786329905105 -29.907520011993846 L 102.00000000000024 -30 L 107.49213670094942 -29.907520011993828 L 112.95041255281646 -29.630650217854114 L 118.3411754699137 -29.171097611930268 L 123.63118960624666 -28.53169548885456 L 128.78784026555664 -27.71638597533854 L 133.77933498176864 -26.730195725650955 L 138.5748995301168 -25.579204930622666 L 143.14496766047353 -24.2705098312483 L 147.46136338311325 -22.812178968000786 L 151.49747468305873 -21.21320343559626 L 155.22841759200253 -19.483441449905325 L 158.63118960624666 -17.633557568773984 L 161.68481150478678 -15.674956941478234 L 164.37045669318604 -13.61971499218615 L 166.67156727579032 -11.480502970952417 L 168.57395614066098 -9.270509831248125 L 170.06589442783752 -7.003360915676845 L 171.13818384165978 -4.6930339512065915 L 171.78421336131902 -2.353772871834997 Z" fill-opacity="1"/><text fill="rgb(13,17,23)" stroke="none" font-family="Segoe UI, sans-serif" font-size="18px" font-style="normal" font-weight="500" text-decoration="normal" x="102" y="9" text-anchor="middle" dominant-baseline="text-after-edge" fill-opacity="1">Client 2</text><path fill="rgb(14,165,233)" stroke="none" paint-order="stroke fill markers" d=" M 912 0 L 911.784213361319 2.353772871835348 L 911.1381838416596 4.693033951206926 L 910.0658944278374 7.0033609156771615 L 908.5739561406607 9.270509831248422 L 906.67156727579 11.480502970952694 L 904.3704566931857 13.619714992186402 L 901.6848115047865 15.674956941478463 L 898.6311896062464 17.633557568774194 L 895.2284175920022 19.48344144990551 L 891.4974746830583 21.213203435596423 L 887.4613633831128 22.81217896800093 L 883.1449676604731 24.270509831248425 L 878.5748995301165 25.579204930622765 L 873.7793349817683 26.730195725651033 L 868.7878402655563 27.716385975338603 L 863.6311896062464 28.531695488854606 L 858.3411754699134 29.171097611930296 L 852.9504125528161 29.630650217854132 L 847.4921367009491 29.90752001199384 L 842 30 L 836.5078632990509 29.90752001199384 L 831.0495874471839 29.630650217854132 L 825.6588245300866 29.1710976119303 L 820.3688103937537 28.53169548885461 L 815.2121597344437 27.716385975338603 L 810.2206650182318 26.730195725651036 L 805.4251004698835 25.57920493062277 L 800.8550323395269 24.270509831248425 L 796.5386366168872 22.812178968000932 L 792.5025253169417 21.213203435596427 L 788.7715824079978 19.483441449905513 L 785.3688103937537 17.633557568774197 L 782.3151884952135 15.674956941478467 L 779.6295433068143 13.619714992186406 L 777.32843272421 11.480502970952697 L 775.4260438593393 9.270509831248425 L 773.9341055721626 7.003360915677166 L 772.8618161583404 4.693033951206929 L 772.215786638681 2.353772871835352 L 772 3.67394039744206e-15 L 772.215786638681 -2.3537728718353446 L 772.8618161583404 -4.693033951206922 L 773.9341055721626 -7.003360915677159 L 775.4260438593392 -9.270509831248418 L 777.32843272421 -11.48050297095269 L 779.6295433068143 -13.6197149921864 L 782.3151884952135 -15.674956941478461 L 785.3688103937536 -17.63355756877419 L 788.7715824079978 -19.483441449905506 L 792.5025253169416 -21.213203435596423 L 796.5386366168871 -22.812178968000918 L 800.8550323395268 -24.27050983124842 L 805.4251004698835 -25.579204930622772 L 810.2206650182318 -26.730195725651047 L 815.2121597344438 -27.716385975338614 L 820.3688103937537 -28.531695488854623 L 825.6588245300868 -29.171097611930314 L 831.049587447184 -29.630650217854143 L 836.5078632990511 -29.907520011993846 L 842.0000000000002 -30 L 847.4921367009495 -29.907520011993828 L 852.9504125528165 -29.630650217854114 L 858.3411754699137 -29.171097611930268 L 863.6311896062466 -28.53169548885456 L 868.7878402655566 -27.71638597533854 L 873.7793349817687 -26.730195725650955 L 878.5748995301168 -25.579204930622666 L 883.1449676604735 -24.2705098312483 L 887.4613633831133 -22.812178968000786 L 891.4974746830587 -21.21320343559626 L 895.2284175920025 -19.483441449905325 L 898.6311896062467 -17.633557568773984 L 901.6848115047868 -15.674956941478234 L 904.370456693186 -13.61971499218615 L 906.6715672757904 -11.480502970952417 L 908.5739561406609 -9.270509831248125 L 910.0658944278375 -7.003360915676845 L 911.1381838416597 -4.6930339512065915 L 911.784213361319 -2.353772871834997 Z" fill-opacity="1"/><text fill="rgb(13,17,23)" stroke="none" font-family="Segoe UI, sans-serif" font-size="18px" font-style="normal" font-weight="500" text-decoration="normal" x="842" y="9" text-anchor="middle" dominant-baseline="text-after-edge" fill-opacity="1">Client 3</text><path fill="rgb(14,165,233)" stroke="none" paint-order="stroke fill markers" d=" M 652 0 L 651.784213361319 2.353772871835348 L 651.1381838416596 4.693033951206926 L 650.0658944278374 7.0033609156771615 L 648.5739561406607 9.270509831248422 L 646.67156727579 11.480502970952694 L 644.3704566931857 13.619714992186402 L 641.6848115047865 15.674956941478463 L 638.6311896062464 17.633557568774194 L 635.2284175920022 19.48344144990551 L 631.4974746830583 21.213203435596423 L 627.4613633831128 22.81217896800093 L 623.1449676604731 24.270509831248425 L 618.5748995301165 25.579204930622765 L 613.7793349817683 26.730195725651033 L 608.7878402655563 27.716385975338603 L 603.6311896062464 28.531695488854606 L 598.3411754699134 29.171097611930296 L 592.9504125528161 29.630650217854132 L 587.4921367009491 29.90752001199384 L 582 30 L 576.5078632990509 29.90752001199384 L 571.0495874471839 29.630650217854132 L 565.6588245300866 29.1710976119303 L 560.3688103937537 28.53169548885461 L 555.2121597344437 27.716385975338603 L 550.2206650182318 26.730195725651036 L 545.4251004698835 25.57920493062277 L 540.8550323395269 24.270509831248425 L 536.5386366168872 22.812178968000932 L 532.5025253169417 21.213203435596427 L 528.7715824079978 19.483441449905513 L 525.3688103937537 17.633557568774197 L 522.3151884952135 15.674956941478467 L 519.6295433068143 13.619714992186406 L 517.32843272421 11.480502970952697 L 515.4260438593393 9.270509831248425 L 513.9341055721626 7.003360915677166 L 512.8618161583404 4.693033951206929 L 512.215786638681 2.353772871835352 L 512 3.67394039744206e-15 L 512.215786638681 -2.3537728718353446 L 512.8618161583404 -4.693033951206922 L 513.9341055721626 -7.003360915677159 L 515.4260438593392 -9.270509831248418 L 517.32843272421 -11.48050297095269 L 519.6295433068143 -13.6197149921864 L 522.3151884952135 -15.674956941478461 L 525.3688103937536 -17.63355756877419 L 528.7715824079978 -19.483441449905506 L 532.5025253169416 -21.213203435596423 L 536.5386366168871 -22.812178968000918 L 540.8550323395268 -24.27050983124842 L 545.4251004698835 -25.579204930622772 L 550.2206650182318 -26.730195725651047 L 555.2121597344438 -27.716385975338614 L 560.3688103937537 -28.531695488854623 L 565.6588245300868 -29.171097611930314 L 571.049587447184 -29.630650217854143 L 576.5078632990511 -29.907520011993846 L 582.0000000000002 -30 L 587.4921367009495 -29.907520011993828 L 592.9504125528165 -29.630650217854114 L 598.3411754699137 -29.171097611930268 L 603.6311896062466 -28.53169548885456 L 608.7878402655566 -27.71638597533854 L 613.7793349817687 -26.730195725650955 L 618.5748995301168 -25.579204930622666 L 623.1449676604735 -24.2705098312483 L 627.4613633831133 -22.812178968000786 L 631.4974746830587 -21.21320343559626 L 635.2284175920025 -19.483441449905325 L 638.6311896062467 -17.633557568773984 L 641.6848115047868 -15.674956941478234 L 644.370456693186 -13.61971499218615 L 646.6715672757904 -11.480502970952417 L 648.5739561406609 -9.270509831248125 L 650.0658944278375 -7.003360915676845 L 651.1381838416597 -4.6930339512065915 L 651.784213361319 -2.353772871834997 Z" fill-opacity="1"/><text fill="rgb(13,17,23)" stroke="none" font-family="Segoe UI, sans-serif" font-size="18px" font-style="normal" font-weight="500" text-decoration="normal" x="582" y="9" text-anchor="middle" dominant-baseline="text-after-edge" fill-opacity="1">Client 4</text><path fill="rgb(34,197,94)" stroke="none" paint-order="stroke fill markers" d=" M 112 160 L 204 160 L 204 160 A 8 8 0 0 1 212 168 L 212 232 L 212 232 A 8 8 0 0 1 204 240 L 20 240 L 20 240 A 8 8 0 0 1 12 232 L 12 168 L 12 168 A 8 8 0 0 1 20 160 L 112 160 Z" fill-opacity="1"/><text fill="rgb(13,17,23)" stroke="none" font-family="Segoe UI, sans-serif" font-size="18px" font-style="normal" font-weight="500" text-decoration="normal" x="112" y="200" text-anchor="middle" dominant-baseline="text-after-edge" fill-opacity="1">EdgeChunk (0,0)</text><text fill="rgb(13,17,23)" stroke="none" font-family="Segoe UI, sans-serif" font-size="18px" font-style="normal" font-weight="500" text-decoration="normal" x="112" y="218" text-anchor="middle" dominant-baseline="text-after-edge" fill-opacity="1">replica 1</text><path fill="rgb(34,197,94)" stroke="none" paint-order="stroke fill markers" d=" M 352 160 L 444 160 L 444 160 A 8 8 0 0 1 452 168 L 452 232 L 452 232 A 8 8 0 0 1 444 240 L 260 240 L 260 240 A 8 8 0 0 1 252 232 L 252 168 L 252 168 A 8 8 0 0 1 260 160 L 352 160 Z" fill-opacity="1"/><text fill="rgb(13,17,23)" stroke="none" font-family="Segoe UI, sans-serif" font-size="18px" font-style="normal" font-weight="500" text-decoration="normal" x="352" y="200" text-anchor="middle" dominant-baseline="text-after-edge" fill-opacity="1">EdgeChunk (0,1)</text><text fill="rgb(13,17,23)" stroke="none" font-family="Segoe UI, sans-serif" font-size="18px" font-style="normal" font-weight="500" text-decoration="normal" x="352" y="218" text-anchor="middle" dominant-baseline="text-after-edge" fill-opacity="1">replica 1</text><path fill="rgb(34,197,94)" stroke="none" paint-order="stroke fill markers" d=" M 832 160 L 924 160 L 924 160 A 8 8 0 0 1 932 168 L 932 232 L 932 232 A 8 8 0 0 1 924 240 L 740 240 L 740 240 A 8 8 0 0 1 732 232 L 732 168 L 732 168 A 8 8 0 0 1 740 160 L 832 160 Z" fill-opacity="1"/><text fill="rgb(13,17,23)" stroke="none" font-family="Segoe UI, sans-serif" font-size="18px" font-style="normal" font-weight="500" text-decoration="normal" x="832" y="200" text-anchor="middle" dominant-baseline="text-after-edge" fill-opacity="1">EdgeChunk (0,0)</text><text fill="rgb(13,17,23)" stroke="none" font-family="Segoe UI, sans-serif" font-size="18px" font-style="normal" font-weight="500" text-decoration="normal" x="832" y="218" text-anchor="middle" dominant-baseline="text-after-edge" fill-opacity="1">replica 2</text><path fill="rgb(34,197,94)" stroke="none" paint-order="stroke fill markers" d=" M 592 160 L 684 160 L 684 160 A 8 8 0 0 1 692 168 L 692 232 L 692 232 A 8 8 0 0 1 684 240 L 500 240 L 500 240 A 8 8 0 0 1 492 232 L 492 168 L 492 168 A 8 8 0 0 1 500 160 L 592 160 Z" fill-opacity="1"/><text fill="rgb(13,17,23)" stroke="none" font-family="Segoe UI, sans-serif" font-size="18px" font-style="normal" font-weight="500" text-decoration="normal" x="592" y="200" text-anchor="middle" dominant-baseline="text-after-edge" fill-opacity="1">EdgeChunk (0,1)</text><text fill="rgb(13,17,23)" stroke="none" font-family="Segoe UI, sans-serif" font-size="18px" font-style="normal" font-weight="500" text-decoration="normal" x="592" y="218" text-anchor="middle" dominant-baseline="text-after-edge" fill-opacity="1">replica 2</text><path fill="rgb(245,158,11)" stroke="none" paint-order="stroke fill markers" d=" M 592 400 L 591.6300800479753 406.27672765822757 L 590.5226008714166 412.5147572032185 L 588.6843904477212 418.67562910847244 L 586.1267819554184 424.7213595499958 L 582.8655439013544 430.6146745892072 L 578.9207829026042 436.31923997916374 L 574.3168197224911 441.7998851772759 L 569.0820393249937 447.02282018339787 L 563.2487158720037 451.9558438664147 L 556.8528137423857 456.5685424949238 L 549.933765799622 460.8324772480025 L 542.5342302750968 464.7213595499958 L 534.6998277659138 468.2112131483274 L 526.4788599687456 471.28052193506943 L 517.9220118838108 473.91036260090294 L 509.0820393249937 476.0845213036123 L 500.01344366270865 477.7895936318141 L 490.7721358048277 479.015067247611 L 481.4150914873414 479.7533866986502 L 472 480 L 462.5849085126586 479.7533866986502 L 453.2278641951723 479.015067247611 L 443.98655633729135 477.7895936318141 L 434.9179606750063 476.0845213036123 L 426.0779881161892 473.91036260090294 L 417.5211400312544 471.28052193506943 L 409.3001722340862 468.2112131483274 L 401.4657697249032 464.7213595499958 L 394.06623420037795 460.8324772480025 L 387.1471862576143 456.5685424949238 L 380.7512841279963 451.9558438664147 L 374.9179606750063 447.02282018339787 L 369.68318027750894 441.7998851772759 L 365.0792170973959 436.31923997916374 L 361.1344560986456 430.6146745892072 L 357.87321804458156 424.7213595499958 L 355.31560955227883 418.67562910847244 L 353.4773991285835 412.5147572032185 L 352.36991995202465 406.2767276582276 L 352 400 L 352.36991995202465 393.72327234177243 L 353.47739912858344 387.48524279678156 L 355.31560955227883 381.32437089152756 L 357.87321804458156 375.2786404500042 L 361.13445609864556 369.3853254107928 L 365.0792170973958 363.68076002083626 L 369.68318027750894 358.2001148227241 L 374.91796067500627 352.9771798166022 L 380.75128412799626 348.0441561335853 L 387.1471862576143 343.4314575050762 L 394.0662342003779 339.1675227519976 L 401.4657697249032 335.2786404500042 L 409.3001722340862 331.7887868516726 L 417.52114003125445 328.7194780649305 L 426.0779881161894 326.089637399097 L 434.9179606750065 323.9154786963877 L 443.9865563372916 322.21040636818583 L 453.2278641951726 320.98493275238894 L 462.58490851265896 320.2466133013497 L 472.0000000000004 320 L 481.41509148734184 320.2466133013498 L 490.7721358048282 320.984932752389 L 500.0134436627092 322.21040636818594 L 509.0820393249943 323.9154786963878 L 517.9220118838114 326.0896373990972 L 526.4788599687463 328.7194780649308 L 534.6998277659145 331.7887868516729 L 542.5342302750975 335.27864045000456 L 549.9337657996227 339.1675227519979 L 556.8528137423864 343.43145750507665 L 563.2487158720044 348.04415613358583 L 569.0820393249943 352.9771798166027 L 574.3168197224916 358.2001148227247 L 578.9207829026046 363.68076002083694 L 582.8655439013548 369.38532541079354 L 586.1267819554188 375.278640450005 L 588.6843904477215 381.3243708915284 L 590.5226008714168 387.4852427967824 L 591.6300800479755 393.72327234177334 Z" fill-opacity="1"/><text fill="rgb(13,17,23)" stroke="none" font-family="Segoe UI, sans-serif" font-size="18px" font-style="normal" font-weight="500" text-decoration="normal" x="472" y="409" text-anchor="middle" dominant-baseline="text-after-edge" fill-opacity="1">Simulation</text><g transform="scale(1,1) translate(11,-31)"/></g></svg>
